# xmcd
#
# Track frame offsets:
#	225
#	17029
#	44908
#	60177
#	77041
#	90472
#	101291
#	123188
#	142729
#	153866
#	167642
#	188186
#	202310
#	216909
#
# Disc length: 3256 seconds
#
# Revision: 0
# Processed by: cddbd v1.5.1PL0 Copyright (c) Steve Scherf et al.
# Submitted via: audiograbber 1.83.01
#
DISCID=b50cb50e
DTITLE=Malokarpazka - Volume 3
DYEAR=1900
DGENRE=Blasmusik
TTITLE0=Polka für Trompete
TTITLE1=Tatranska - Rhapsodie
TTITLE2=Caruba
TTITLE3=Zeierlei
TTITLE4=Hoch und Tief
TTITLE5=Bayrische Trompetenpolka
TTITLE6=Slawischer Tanz Nr.3
TTITLE7=Burleske
TTITLE8=Devinpolka
TTITLE9=Pittoreskewalzer
TTITLE10=Tarockpolka
TTITLE11=Olinkapolka
TTITLE12=Ciganske - Melodien
TTITLE13=Feierliche Ouverture
EXTD=
EXTT0=
EXTT1=
EXTT2=
EXTT3=
EXTT4=
EXTT5=
EXTT6=
EXTT7=
EXTT8=
EXTT9=
EXTT10=
EXTT11=
EXTT12=
EXTT13=
PLAYORDER=
